<?xml version="1.0" encoding="UTF-8" standalone="no"?>
<svg
   viewBox="0 0 24 24"
   width="24"
   height="24"
   version="1.1"
   id="svg6"
   sodipodi:docname="restaurant-2-line.svg"
   inkscape:version="1.2 (dc2aedaf03, 2022-05-15)"
   xmlns:inkscape="http://www.inkscape.org/namespaces/inkscape"
   xmlns:sodipodi="http://sodipodi.sourceforge.net/DTD/sodipodi-0.dtd"
   xmlns="http://www.w3.org/2000/svg"
   xmlns:svg="http://www.w3.org/2000/svg">
  <defs
     id="defs10" />
  <sodipodi:namedview
     id="namedview8"
     pagecolor="#ffffff"
     bordercolor="#000000"
     borderopacity="0.25"
     inkscape:showpageshadow="2"
     inkscape:pageopacity="0.0"
     inkscape:pagecheckerboard="0"
     inkscape:deskcolor="#d1d1d1"
     showgrid="false"
     inkscape:zoom="34.875"
     inkscape:cx="12"
     inkscape:cy="12.014337"
     inkscape:window-width="1920"
     inkscape:window-height="1017"
     inkscape:window-x="-8"
     inkscape:window-y="-8"
     inkscape:window-maximized="1"
     inkscape:current-layer="svg6" />
  <path
     fill="none"
     d="M0 0h24v24H0z"
     id="path2" />
  <path
     d="M14.268 12.146l-.854.854 7.071 7.071-1.414 1.414L12 14.415l-7.071 7.07-1.414-1.414 9.339-9.339c-.588-1.457.02-3.555 1.62-5.157 1.953-1.952 4.644-2.427 6.011-1.06s.892 4.058-1.06 6.01c-1.602 1.602-3.7 2.21-5.157 1.621zM4.222 3.808l6.717 6.717-2.828 2.829-3.89-3.89a4 4 0 0 1 0-5.656zM18.01 9.11c1.258-1.257 1.517-2.726 1.061-3.182-.456-.456-1.925-.197-3.182 1.06-1.257 1.258-1.516 2.727-1.06 3.183.455.455 1.924.196 3.181-1.061z"
     id="path4"
     style="fill:#ffffff;fill-opacity:1" />
</svg>
